<svg xmlns="http://www.w3.org/2000/svg" version="1.1" xmlns:xlink="http://www.w3.org/1999/xlink" width="500" height="500"><svg xmlns="http://www.w3.org/2000/svg" xmlns:xlink="http://www.w3.org/1999/xlink" width="500" zoomAndPan="magnify" viewBox="0 0 375 374.999991" height="500" preserveAspectRatio="xMidYMid meet" version="1.0"><defs><g></g><clipPath id="SvgjsClipPath1007"><rect x="0" width="109" y="0" height="373"></rect></clipPath><clipPath id="SvgjsClipPath1006"><rect x="0" width="205" y="0" height="374"></rect></clipPath></defs><g transform="matrix(1, 0, 0, 1, 253, 0)"><g clip-path="url(#f7f34b7460)"><g fill="#8f8f8f" fill-opacity="1"><g transform="translate(8.156901, 266.472653)"><g><path d="M 22.921875 24.0625 L 8.640625 9.765625 C 5.640625 8.515625 3.132812 6.445312 1.125 3.5625 C -0.875 0.6875 -1.875 -2.378906 -1.875 -5.640625 L -1.875 -35.703125 C -1.875 -40.210938 -0.1875 -44.160156 3.1875 -47.546875 C 6.570312 -50.929688 10.519531 -52.625 15.03125 -52.625 L 46.984375 -52.625 C 50.492188 -52.625 53.625 -51.554688 56.375 -49.421875 C 59.132812 -47.296875 61.140625 -44.726562 62.390625 -41.71875 L 76.671875 -27.8125 C 79.929688 -24.550781 81.5625 -20.914062 81.5625 -16.90625 L 81.5625 13.15625 C 81.5625 17.164062 79.992188 20.796875 76.859375 24.046875 C 73.734375 27.304688 70.039062 28.9375 65.78125 28.9375 L 33.828125 28.9375 C 29.816406 28.9375 26.179688 27.3125 22.921875 24.0625 Z M 22.921875 24.0625 "></path></g></g></g><g fill="#1e1e1e" fill-opacity="1"><g transform="translate(19.452704, 258.853539)"><g><path d="M 20.1875 26.796875 L 5.902344 12.511719 L 8.644531 9.773438 L 7.152344 13.351562 C 3.449219 11.808594 0.382812 9.285156 -2.054688 5.785156 C -4.523438 2.238281 -5.753906 -1.570312 -5.753906 -5.636719 L -5.753906 -35.707031 C -5.753906 -41.285156 -3.6875 -46.148438 0.453125 -50.285156 C 4.59375 -54.425781 9.453125 -56.496094 15.035156 -56.496094 L 46.980469 -56.496094 C 51.371094 -56.496094 55.292969 -55.160156 58.75 -52.492188 C 62.046875 -49.945312 64.453125 -46.851562 65.96875 -43.210938 L 62.390625 -41.71875 L 65.097656 -44.496094 L 79.378906 -30.589844 C 83.417969 -26.550781 85.4375 -21.992188 85.4375 -16.914062 L 85.4375 13.15625 C 85.4375 18.203125 83.511719 22.734375 79.65625 26.742188 C 75.761719 30.792969 71.136719 32.816406 65.773438 32.816406 L 33.828125 32.816406 C 28.746094 32.816406 24.199219 30.808594 20.1875 26.796875 Z M 25.667969 21.3125 C 28.167969 23.816406 30.886719 25.066406 33.828125 25.066406 L 65.773438 25.066406 C 68.933594 25.066406 71.699219 23.832031 74.070312 21.367188 C 76.480469 18.859375 77.683594 16.125 77.683594 13.15625 L 77.683594 -16.914062 C 77.683594 -19.851562 76.445312 -22.558594 73.96875 -25.035156 L 59.121094 -39.496094 L 58.8125 -40.230469 C 57.824219 -42.605469 56.222656 -44.648438 54.007812 -46.359375 C 51.949219 -47.949219 49.609375 -48.742188 46.980469 -48.742188 L 15.035156 -48.742188 C 11.59375 -48.742188 8.5625 -47.429688 5.9375 -44.804688 C 3.308594 -42.179688 1.996094 -39.144531 1.996094 -35.707031 L 1.996094 -5.636719 C 1.996094 -3.191406 2.769531 -0.859375 4.308594 1.355469 C 5.882812 3.621094 7.824219 5.230469 10.136719 6.195312 L 10.84375 6.488281 Z M 25.667969 21.3125 "></path></g></g></g></g></g><g transform="matrix(1, 0, 0, 1, 42, 1)"><g clip-path="url(#666d3bda7e)"><g fill="#8f8f8f" fill-opacity="1"><g transform="translate(1.224454, 271.181417)"><g><path d="M 0 -182.296875 C 0 -186.804688 1.6875 -190.75 5.0625 -194.125 C 8.445312 -197.507812 12.394531 -199.203125 16.90625 -199.203125 L 56.375 -199.203125 C 59.882812 -199.203125 63.015625 -198.132812 65.765625 -196 C 68.523438 -193.875 70.535156 -191.3125 71.796875 -188.3125 L 86.078125 -174.40625 C 89.328125 -171.144531 90.953125 -167.507812 90.953125 -163.5 L 90.953125 -161.625 L 109.375 -161.625 C 119.644531 -161.625 129.039062 -159.179688 137.5625 -154.296875 C 146.082031 -149.410156 152.847656 -142.957031 157.859375 -134.9375 L 168.015625 -125.15625 C 173.273438 -119.894531 177.40625 -113.816406 180.40625 -106.921875 C 183.414062 -100.035156 184.921875 -92.582031 184.921875 -84.5625 L 184.921875 13.15625 C 184.921875 17.164062 183.351562 20.796875 180.21875 24.046875 C 177.09375 27.304688 173.398438 28.9375 169.140625 28.9375 L 129.671875 28.9375 C 125.660156 28.9375 122.023438 27.3125 118.765625 24.0625 L 104.484375 10.140625 C 101.484375 8.890625 98.976562 6.757812 96.96875 3.75 C 94.96875 0.75 93.96875 -2.378906 93.96875 -5.640625 L 90.953125 -5.640625 L 90.953125 13.15625 C 90.953125 17.164062 89.382812 20.796875 86.25 24.046875 C 83.125 27.304688 79.429688 28.9375 75.171875 28.9375 L 35.703125 28.9375 C 31.691406 28.9375 28.0625 27.3125 24.8125 24.0625 L 10.53125 10.140625 C 7.519531 8.890625 5.007812 6.757812 3 3.75 C 1 0.75 0 -2.378906 0 -5.640625 Z M 0 -182.296875 "></path></g></g></g><g fill="#1e1e1e" fill-opacity="1"><g transform="translate(12.520262, 263.562296)"><g><path d="M -3.875 -182.292969 C -3.875 -187.875 -1.804688 -192.734375 2.332031 -196.875 C 6.472656 -201.015625 11.332031 -203.085938 16.914062 -203.085938 L 56.378906 -203.085938 C 60.769531 -203.085938 64.691406 -201.75 68.148438 -199.082031 C 71.445312 -196.53125 73.851562 -193.4375 75.367188 -189.800781 L 71.789062 -188.308594 L 74.496094 -191.085938 L 88.777344 -177.179688 C 92.816406 -173.140625 94.835938 -168.582031 94.835938 -163.5 L 94.835938 -161.621094 L 90.960938 -161.621094 L 90.960938 -165.5 L 109.375 -165.5 C 120.339844 -165.5 130.378906 -162.882812 139.496094 -157.65625 C 148.578125 -152.445312 155.796875 -145.558594 161.152344 -136.988281 L 157.863281 -134.9375 L 160.550781 -137.726562 L 170.699219 -127.957031 C 176.34375 -122.3125 180.765625 -115.824219 183.96875 -108.484375 C 187.191406 -101.097656 188.800781 -93.128906 188.800781 -84.570312 L 188.800781 13.15625 C 188.800781 18.207031 186.875 22.734375 183.023438 26.742188 C 179.125 30.792969 174.5 32.816406 169.140625 32.816406 L 129.671875 32.816406 C 124.59375 32.816406 120.046875 30.8125 116.03125 26.796875 L 101.785156 12.925781 L 104.492188 10.148438 L 103 13.726562 C 99.269531 12.171875 96.1875 9.566406 93.75 5.910156 C 91.308594 2.25 90.089844 -1.597656 90.089844 -5.636719 L 93.964844 -5.636719 L 93.964844 -1.761719 L 90.960938 -1.761719 L 90.960938 -5.636719 L 94.835938 -5.636719 L 94.835938 13.15625 C 94.835938 18.207031 92.910156 22.734375 89.054688 26.742188 C 85.160156 30.792969 80.53125 32.816406 75.171875 32.816406 L 35.707031 32.816406 C 30.628906 32.816406 26.082031 30.8125 22.066406 26.796875 L 7.820312 12.925781 L 10.523438 10.148438 L 9.035156 13.726562 C 5.304688 12.171875 2.21875 9.566406 -0.21875 5.910156 C -2.65625 2.25 -3.875 -1.597656 -3.875 -5.636719 Z M 3.875 -182.292969 L 3.875 -5.636719 C 3.875 -3.164062 4.660156 -0.746094 6.230469 1.609375 C 7.800781 3.964844 9.730469 5.617188 12.015625 6.570312 L 12.699219 6.855469 L 27.546875 21.316406 C 30.046875 23.816406 32.769531 25.066406 35.707031 25.066406 L 75.171875 25.066406 C 78.332031 25.066406 81.097656 23.832031 83.46875 21.367188 C 85.878906 18.863281 87.082031 16.125 87.082031 13.15625 L 87.082031 -9.515625 L 97.84375 -9.515625 L 97.84375 -5.636719 C 97.84375 -3.164062 98.628906 -0.746094 100.199219 1.609375 C 101.769531 3.964844 103.695312 5.617188 105.980469 6.570312 L 106.664062 6.855469 L 121.515625 21.316406 C 124.015625 23.816406 126.734375 25.066406 129.671875 25.066406 L 169.140625 25.066406 C 172.300781 25.066406 175.0625 23.832031 177.433594 21.367188 C 179.84375 18.863281 181.050781 16.125 181.050781 13.15625 L 181.050781 -84.570312 C 181.050781 -92.050781 179.652344 -98.988281 176.863281 -105.382812 C 174.050781 -111.828125 170.203125 -117.488281 165.324219 -122.371094 L 154.832031 -132.476562 L 154.578125 -132.882812 C 149.910156 -140.351562 143.597656 -146.367188 135.636719 -150.929688 C 127.714844 -155.472656 118.960938 -157.746094 109.375 -157.746094 L 87.082031 -157.746094 L 87.082031 -163.5 C 87.082031 -166.441406 85.84375 -169.148438 83.371094 -171.625 L 68.519531 -186.085938 L 68.210938 -186.816406 C 67.222656 -189.191406 65.621094 -191.234375 63.40625 -192.945312 C 61.347656 -194.539062 59.007812 -195.332031 56.378906 -195.332031 L 16.914062 -195.332031 C 13.472656 -195.332031 10.441406 -194.019531 7.816406 -191.394531 C 5.1875 -188.769531 3.875 -185.734375 3.875 -182.292969 Z M 3.875 -182.292969 "></path></g></g></g></g></g></svg><style>@media (prefers-color-scheme: light) { :root { filter: contrast(1) brightness(1); } }
@media (prefers-color-scheme: dark) { :root { filter: none; } }
</style></svg>